<svg width="20" height="20" viewBox="0 0 20 20" fill="none" xmlns="http://www.w3.org/2000/svg">
<rect width="20" height="20" rx="4" fill="#FFE6E2"/>
<g clip-path="url(#clip0)">
<path d="M10.001 14.999C11.0528 15.0067 12.0647 14.5968 12.8146 13.8593C13.5646 13.1217 13.9912 12.1168 14.001 11.065C13.9463 9.39757 13.2562 7.81413 12.072 6.639C11.5056 6.0243 10.8611 5.48639 10.155 5.039C10.1063 5.01264 10.0516 4.99902 9.99622 4.9994C9.94081 4.99978 9.88639 5.01415 9.83801 5.04118C9.78963 5.06822 9.74886 5.10703 9.71949 5.15402C9.69012 5.20102 9.6731 5.25467 9.67 5.31V8.007L8.265 6.72C8.23579 6.693 8.2015 6.67208 8.16413 6.65845C8.12676 6.64482 8.08705 6.63876 8.04731 6.64062C8.00758 6.64248 7.96861 6.65223 7.93267 6.66929C7.89674 6.68635 7.86456 6.71039 7.838 6.74C7.32886 7.29518 6.90308 7.92139 6.574 8.599C4.877 12.176 7.217 14.999 10.001 14.999Z" fill="#E93B37"/>
<path d="M6.55198 8.599C6.86562 7.92467 7.2741 7.29867 7.76499 6.74C7.78996 6.71077 7.82066 6.68695 7.85517 6.67001C7.88968 6.65307 7.92728 6.64337 7.96568 6.64149C8.00408 6.63962 8.04244 6.64562 8.07844 6.65912C8.11444 6.67262 8.1473 6.69334 8.175 6.72L9.525 8.007V5.312C9.52797 5.23037 9.56164 5.15287 9.6193 5.09501C9.67697 5.03716 9.75439 5.00322 9.83601 5V15C7.16501 14.995 4.92298 12.173 6.55198 8.599Z" fill="#FC6111"/>
<path d="M10.001 15.003C10.3885 15.0022 10.7598 14.8477 11.0336 14.5734C11.3073 14.2991 11.461 13.9275 11.461 13.54C11.4229 13.1094 11.2835 12.6939 11.0541 12.3275C10.8246 11.9611 10.5118 11.6543 10.141 11.432C10.0953 11.4052 10.043 11.3917 9.99001 11.393C9.93703 11.3942 9.88545 11.4101 9.841 11.439C9.48266 11.6713 9.18024 11.9801 8.95546 12.3432C8.73068 12.7063 8.58914 13.1147 8.541 13.539C8.54073 13.9266 8.69435 14.2986 8.96809 14.5731C9.24184 14.8476 9.61333 15.0022 10.001 15.003Z" fill="#FEC356"/>
<path d="M8.50401 13.536C8.55215 13.1117 8.69367 12.7033 8.91844 12.3402C9.14322 11.9771 9.44566 11.6683 9.804 11.436C9.85092 11.4052 9.90585 11.3888 9.96199 11.389V14.996C9.57537 14.9947 9.20498 14.8404 8.93178 14.5668C8.65858 14.2932 8.50481 13.9226 8.50401 13.536V13.536Z" fill="#FEB020"/>
</g>
<defs>
<clipPath id="clip0">
<rect width="8" height="10" fill="white" transform="translate(6 5)"/>
</clipPath>
</defs>
</svg>
