<svg xmlns="http://www.w3.org/2000/svg" width="14" height="14" viewBox="0 0 14 14"><defs><style>.a{fill:#ffc107;}</style></defs><path class="a" d="M13.964,5.782a.75.75,0,0,0-.641-.534L9.282,4.865l-1.6-3.9a.732.732,0,0,0-1.368,0l-1.6,3.9L.677,5.248a.751.751,0,0,0-.64.534.8.8,0,0,0,.218.825L3.309,9.4l-.9,4.14a.793.793,0,0,0,.289.8.714.714,0,0,0,.817.037L7,12.207l3.484,2.174a.716.716,0,0,0,.818-.037.794.794,0,0,0,.289-.8l-.9-4.14,3.054-2.795a.8.8,0,0,0,.218-.825Zm0,0" transform="translate(0 -0.491)"/></svg>