<svg xmlns="http://www.w3.org/2000/svg" width="20" height="20" viewBox="0 0 20 20"><defs><style>.a{fill:#e3f8fa;}.b{fill:#8ce1eb;}.c{fill:#26c6da;}</style></defs><path class="a" d="M16.25,20H3.75A3.75,3.75,0,0,1,0,16.25V3.75A3.75,3.75,0,0,1,3.75,0h12.5A3.75,3.75,0,0,1,20,3.75v12.5A3.75,3.75,0,0,1,16.25,20Zm0,0"/><g transform="translate(8.256 4.979)"><path class="b" d="M245.754,130.024a.427.427,0,0,1-.426-.426v-1.171a.426.426,0,0,1,.852,0V129.6A.427.427,0,0,1,245.754,130.024Zm0,0" transform="translate(-244.05 -128)"/><path class="b" d="M319.258,167.08a.426.426,0,0,1-.3-.727l.9-.9a.426.426,0,1,1,.6.6l-.9.9A.426.426,0,0,1,319.258,167.08Zm0,0" transform="translate(-314.619 -163.838)"/><path class="b" d="M216.311,128.852h-2.556a.426.426,0,1,1,0-.852h2.556a.426.426,0,1,1,0,.852Zm0,0" transform="translate(-213.328 -128)"/></g><path class="c" d="M148.473,160a4.473,4.473,0,1,0,4.473,4.473A4.478,4.478,0,0,0,148.473,160Zm1.534,6.518a.426.426,0,0,1-.6-.086l-1.278-1.7a.422.422,0,0,1-.085-.256v-2.343a.426.426,0,1,1,.852,0v2.2l1.193,1.591a.427.427,0,0,1-.086.6Zm0,0" transform="translate(-138.473 -153.859)"/></svg>