<svg xmlns="http://www.w3.org/2000/svg" width="64" height="36" viewBox="0 0 64 36"><defs><style>.a{fill:#594f69;}.b{fill:#ffd659;}.c{fill:#ffbd54;}.d{fill:#ff2c5c;}.e{fill:#e62753;}.f{fill:#d1c4c4;}.g{fill:#ebe4e2;}</style></defs><g transform="translate(0)"><g transform="translate(15.979)"><path class="a" d="M249.439,0a.939.939,0,0,0-.938.938v11.6a.938.938,0,0,0,1.877,0V.938A.939.939,0,0,0,249.439,0Zm0,0" transform="translate(-233.418)"/><path class="a" d="M128.907,0a.939.939,0,0,0-.938.938v11.6a.938.938,0,1,0,1.877,0V.938A.939.939,0,0,0,128.907,0Zm0,0" transform="translate(-127.969)"/><path class="a" d="M369.97,0a.939.939,0,0,0-.939.938v11.6a.938.938,0,0,0,1.877,0V.938A.939.939,0,0,0,369.97,0Zm0,0" transform="translate(-338.866)"/></g><path class="b" d="M221.477,149.12h-5.318a2.659,2.659,0,0,1-2.659-2.659v-5.318a2.659,2.659,0,0,1,2.659-2.659h5.318a2.659,2.659,0,0,1,2.659,2.659v5.318A2.659,2.659,0,0,1,221.477,149.12Zm0,0" transform="translate(-186.818 -120.833)"/><path class="c" d="M249.367,138.484h-3.988a2.659,2.659,0,0,1,2.659,2.659v5.318a2.659,2.659,0,0,1-2.659,2.659h3.988a2.659,2.659,0,0,0,2.659-2.659v-5.318A2.659,2.659,0,0,0,249.367,138.484Zm0,0" transform="translate(-214.71 -120.833)"/><path class="d" d="M225.106,62.516a5.156,5.156,0,1,1-5.156-5.156A5.156,5.156,0,0,1,225.106,62.516Zm0,0" transform="translate(-187.949 -50.05)"/><path class="e" d="M242.484,57.359a5.134,5.134,0,0,0-1.933.376,5.157,5.157,0,0,1,0,9.56,5.156,5.156,0,1,0,1.933-9.937Zm0,0" transform="translate(-210.486 -50.05)"/><path class="b" d="M100.946,149.12H95.628a2.659,2.659,0,0,1-2.659-2.659v-5.318a2.659,2.659,0,0,1,2.659-2.659h5.318a2.659,2.659,0,0,1,2.659,2.659v5.318A2.659,2.659,0,0,1,100.946,149.12Zm0,0" transform="translate(-81.35 -120.833)"/><path class="c" d="M128.836,138.484h-3.988a2.659,2.659,0,0,1,2.659,2.659v5.318a2.659,2.659,0,0,1-2.659,2.659h3.988a2.659,2.659,0,0,0,2.659-2.659v-5.318A2.659,2.659,0,0,0,128.836,138.484Zm0,0" transform="translate(-109.244 -120.833)"/><path class="d" d="M104.575,62.516a5.156,5.156,0,1,1-5.156-5.156A5.156,5.156,0,0,1,104.575,62.516Zm0,0" transform="translate(-82.482 -50.05)"/><path class="e" d="M121.953,57.359a5.135,5.135,0,0,0-1.933.376,5.157,5.157,0,0,1,0,9.56,5.156,5.156,0,1,0,1.933-9.937Zm0,0" transform="translate(-105.019 -50.05)"/><path class="b" d="M342.008,149.12H336.69a2.659,2.659,0,0,1-2.659-2.659v-5.318a2.659,2.659,0,0,1,2.659-2.659h5.318a2.659,2.659,0,0,1,2.659,2.659v5.318A2.659,2.659,0,0,1,342.008,149.12Zm0,0" transform="translate(-292.286 -120.833)"/><path class="c" d="M369.9,138.484H365.91a2.659,2.659,0,0,1,2.659,2.659v5.318a2.659,2.659,0,0,1-2.659,2.659H369.9a2.659,2.659,0,0,0,2.659-2.659v-5.318A2.659,2.659,0,0,0,369.9,138.484Zm0,0" transform="translate(-320.177 -120.833)"/><path class="d" d="M345.637,62.516a5.156,5.156,0,1,1-5.156-5.156A5.156,5.156,0,0,1,345.637,62.516Zm0,0" transform="translate(-293.417 -50.05)"/><path class="e" d="M363.012,57.359a5.139,5.139,0,0,0-1.934.376,5.156,5.156,0,0,1,0,9.56,5.156,5.156,0,1,0,1.934-9.937Zm0,0" transform="translate(-315.949 -50.05)"/><path class="f" d="M102.745,243.442H57.687a2.576,2.576,0,0,1-2.575-2.578v-3.223H105.32v3.223a2.576,2.576,0,0,1-2.575,2.578Zm0,0" transform="translate(-48.216 -207.442)"/><path class="g" d="M62.068,226.059H1.932a1.933,1.933,0,0,1,0-3.867H62.068a1.933,1.933,0,0,1,0,3.867Zm0,0" transform="translate(0 -193.926)"/><path class="f" d="M469.512,222.191h-3.867a1.933,1.933,0,1,1,0,3.867h3.867a1.933,1.933,0,1,0,0-3.867Zm0,0" transform="translate(-407.445 -193.925)"/></g></svg>