<svg xmlns="http://www.w3.org/2000/svg" width="56" height="56" viewBox="0 0 56 56"><defs><style>.a{fill:#ad6643;}.b{fill:#fbe9d8;}.c{fill:#f0dfce;}.d{fill:#f7b030;}.e{fill:#c48669;}.f{fill:#d49073;}.g{fill:#e09f2c;}</style></defs><path class="a" d="M169.547,176H144v37.338h25.547Z" transform="translate(-129.725 -158.32)"/><path class="b" d="M55.442,182.954c0-3.841-7.039-6.954-15.721-6.954S24,179.113,24,182.954c0,1.763,1.485,3.373,3.93,4.6v21.855H51.512V187.553C53.958,186.327,55.442,184.717,55.442,182.954Z" transform="translate(-24 -158.32)"/><path class="c" d="M96.7,208.479a.978.978,0,0,1-.361-.069,22.962,22.962,0,0,0-15,0,.983.983,0,1,1-.723-1.827,24.894,24.894,0,0,1,16.444,0,.983.983,0,0,1-.362,1.9Z" transform="translate(-73.122 -183.342)"/><path class="d" d="M41.826,424.843H34.585a2.624,2.624,0,0,1-2.534-3.157A6.966,6.966,0,0,1,38.845,416h2.981Z" transform="translate(-31.018 -368.843)"/><path class="a" d="M387.93,80c4.884,0,8.843-12.536,8.843-28s-3.959-28-8.843-28H384V80Z" transform="translate(-340.774 -24)"/><path class="e" d="M329.686,52c0,15.464-3.96,28-8.843,28-3.266,0-6.119-5.607-7.651-13.947q-.172-.938-.322-1.919A80.947,80.947,0,0,1,312,52.7c0-.233,0-.466,0-.7q0-.657.01-1.307a80.473,80.473,0,0,1,.829-10.611q.16-1.074.346-2.094C314.716,29.625,317.572,24,320.843,24c4.883,0,8.843,12.536,8.843,28Z" transform="translate(-277.617 -24)"/><g transform="translate(34.598 13.26)"><path class="f" d="M322.758,243.029a.983.983,0,0,1-1.243.621,16.469,16.469,0,0,0-9.513-.22c0-.237,0-.474,0-.712q0-.669.01-1.33a18.316,18.316,0,0,1,10.127.4A.983.983,0,0,1,322.758,243.029Z" transform="translate(-312 -227.976)"/><path class="f" d="M329.732,138.142a.983.983,0,0,1-1.243.621,16.449,16.449,0,0,0-9.659-.178q.16-1.093.346-2.131a18.332,18.332,0,0,1,9.934.445.982.982,0,0,1,.621,1.243Z" transform="translate(-317.991 -135.972)"/><path class="f" d="M329.96,354.143a.983.983,0,0,1-1.243.622,16.483,16.483,0,0,0-9.3-.278q-.172-.954-.322-1.953a18.3,18.3,0,0,1,10.248.366A.983.983,0,0,1,329.96,354.143Z" transform="translate(-318.219 -325.443)"/></g><path class="g" d="M84.773,389.756H75.36c-2.12,0-3.71-2.37-3.294-4.909C72.909,379.7,76.6,376,80.9,376h3.875Z" transform="translate(-66.104 -333.756)"/><path class="d" d="M288,424.843h7.241a2.624,2.624,0,0,0,2.534-3.157A6.966,6.966,0,0,0,290.981,416H288Z" transform="translate(-256.255 -368.843)"/><path class="g" d="M224,389.756h9.413c2.12,0,3.71-2.37,3.294-4.909-.843-5.144-4.539-8.847-8.832-8.847H224Z" transform="translate(-199.985 -333.756)"/><path class="d" d="M136.342,354.67H123.31a1.965,1.965,0,0,1-1.923-1.561l-1.179-5.614a9.454,9.454,0,0,1,7.246-11.254,11.865,11.865,0,0,1,4.744,0,9.455,9.455,0,0,1,7.247,11.254l-1.179,5.614A1.965,1.965,0,0,1,136.342,354.67Z" transform="translate(-108.522 -298.67)"/></svg>