<svg xmlns="http://www.w3.org/2000/svg" width="56" height="56" viewBox="0 0 56 56"><defs><style>.a{fill:#d5c6e4;}.b{fill:#c6b4da;}.c{fill:#d8a595;}.d{fill:#d09080;}.e{fill:#f9f6f6;}.f{fill:#dddaec;}.g{fill:#f6e266;}.h{fill:#ffd064;}.i{fill:#95d6a4;}.j{fill:#78c2a4;}</style></defs><circle class="a" cx="28" cy="28" r="28"/><circle class="b" cx="16.301" cy="16.301" r="16.301" transform="translate(11.512 11.512)"/><path class="c" d="M54.919,202.978a26.675,26.675,0,0,1-7.846-18.912,4.214,4.214,0,1,1,8.428,0,18.351,18.351,0,0,0,18.33,18.33,4.214,4.214,0,1,1,0,8.428A26.675,26.675,0,0,1,54.919,202.978Z" transform="translate(-41.959 -160.312)"/><path class="d" d="M76.375,210.026a4.192,4.192,0,0,1-2.544.855,26.789,26.789,0,0,1-26.757-26.758,4.213,4.213,0,0,1,3.975-4.207,4.208,4.208,0,0,0-1.669,3.359,26.789,26.789,0,0,0,26.757,26.758c.079,0,.159,0,.237-.007Z" transform="translate(-41.96 -160.369)"/><path class="e" d="M182.371,46.182l-7.1-5.162a11.632,11.632,0,1,0-13.679,18.816l7.1,5.162a11.632,11.632,0,0,0,13.679-18.816Z" transform="translate(-139.764 -34.581)"/><path class="f" d="M174.106,40.271A12.437,12.437,0,0,0,161.685,59.9l-.091-.066a11.632,11.632,0,0,1,12.512-19.564Z" transform="translate(-139.766 -34.579)"/><circle class="g" cx="6.17" cy="6.17" r="6.17" transform="translate(29.983 14.923)"/><path class="h" d="M281.515,148.511a6.147,6.147,0,0,0,2.126.995,6.17,6.17,0,1,1,.006-11.972,6.171,6.171,0,0,0-2.132,10.977Z" transform="translate(-245.993 -122.428)"/><g transform="translate(45.116 35.63)"><circle class="i" cx="2.506" cy="2.506" r="2.506"/><path class="j" d="M418.662,332.8a2.472,2.472,0,0,1-.89.163,2.506,2.506,0,1,1,0-5.012,2.473,2.473,0,0,1,.89.163,2.505,2.505,0,0,0,0,4.685Z" transform="translate(-415.266 -327.954)"/></g><g transform="translate(46.962 28.209)"><circle class="i" cx="2.506" cy="2.506" r="2.506"/><path class="j" d="M435.657,264.494a2.472,2.472,0,0,1-.89.163,2.506,2.506,0,0,1,0-5.012,2.472,2.472,0,0,1,.89.163,2.505,2.505,0,0,0,0,4.685Z" transform="translate(-432.261 -259.645)"/></g><g transform="translate(37.137 35.131)"><circle class="i" cx="2.506" cy="2.506" r="2.506" transform="translate(0)"/><path class="j" d="M345.217,328.214a2.472,2.472,0,0,1-.89.163,2.506,2.506,0,1,1,0-5.012,2.473,2.473,0,0,1,.89.163,2.505,2.505,0,0,0,0,4.685Z" transform="translate(-341.821 -323.365)"/></g><g transform="translate(39.705 42.634)"><circle class="i" cx="2.506" cy="2.506" r="2.506" transform="translate(0 0)"/><path class="j" d="M368.854,397.269a2.472,2.472,0,0,1-.89.163,2.506,2.506,0,0,1,0-5.012,2.472,2.472,0,0,1,.89.163,2.505,2.505,0,0,0,0,4.685Z" transform="translate(-365.458 -392.42)"/></g><g transform="translate(26.739 7.134)"><path class="f" d="M247,67.37a.836.836,0,0,1-.342-.073l-.052-.023a.839.839,0,0,1,.684-1.533l.052.023A.84.84,0,0,1,247,67.37Z" transform="translate(-246.113 -65.667)"/><path class="f" d="M256.4,90.483a.836.836,0,0,1-.342-.073L256,90.387a.839.839,0,0,1,.684-1.533l.052.023a.84.84,0,0,1-.343,1.606Z" transform="translate(-254.486 -86.27)"/><path class="f" d="M273.637,72.276a.836.836,0,0,1-.342-.073l-.052-.023a.839.839,0,0,1,.684-1.533l.052.023a.84.84,0,0,1-.343,1.606Z" transform="translate(-269.852 -70.04)"/></g><g transform="translate(22.478 17.294)"><path class="f" d="M223.809,160.92a.839.839,0,0,1-.837-.785l0-.057a.839.839,0,0,1,1.675-.109l0,.057a.839.839,0,0,1-.783.892Z" transform="translate(-221.22 -159.184)"/><path class="f" d="M207.738,180a.839.839,0,0,1-.837-.785l0-.057a.839.839,0,0,1,1.675-.109l0,.057a.839.839,0,0,1-.783.892Z" transform="translate(-206.895 -176.194)"/><path class="f" d="M231.881,186.77a.839.839,0,0,1-.837-.785l0-.057a.839.839,0,1,1,1.675-.109l0,.057a.839.839,0,0,1-.783.892Z" transform="translate(-228.415 -182.225)"/></g><g transform="translate(25.547 43.486)"><path class="d" d="M252.059,402a.839.839,0,0,1-.837-.785l0-.057a.839.839,0,1,1,1.675-.109l0,.057a.839.839,0,0,1-.783.892Z" transform="translate(-249.47 -400.267)"/><path class="d" d="M235.988,421.088a.839.839,0,0,1-.837-.785l0-.057a.839.839,0,0,1,1.675-.109l0,.057a.84.84,0,0,1-.783.892Z" transform="translate(-235.145 -417.278)"/><path class="d" d="M260.131,427.854a.839.839,0,0,1-.837-.785l0-.057a.839.839,0,1,1,1.675-.109l0,.057a.839.839,0,0,1-.783.892Z" transform="translate(-256.665 -423.309)"/></g></svg>