<svg xmlns="http://www.w3.org/2000/svg" width="64" height="44" viewBox="0 0 64 44"><defs><style>.a{fill:#cad0d7;}.b{fill:#e4e8eb;}.c{fill:#f4d1b5;}.d{fill:#fab155;}.e{fill:#f2a24b;}.f{fill:#262626;}</style></defs><g transform="translate(-0.387 -10.638)"><g transform="translate(0.686 10.668)"><path class="a" d="M32.45,51.208a.539.539,0,0,1-.5-.361.554.554,0,0,1,.16-.606l4.284-3.648-7.607,4.471a.532.532,0,0,1-.712-.162.555.555,0,0,1,.1-.735L32.287,46.7l-7.2,4.232a.532.532,0,0,1-.708-.17.555.555,0,0,1,.105-.733l3.551-2.862-6.065,3.564a.532.532,0,0,1-.715-.17.554.554,0,0,1,.118-.738L24.214,47.6l-4.872,2.864a.532.532,0,0,1-.705-.153.555.555,0,0,1,.078-.73L22.54,46.1l-6.795,3.994a.532.532,0,0,1-.712-.162.555.555,0,0,1,.1-.735l2.9-2.429-4.528,2.661a.532.532,0,0,1-.712-.165.555.555,0,0,1,.105-.736l1.84-1.505-1.977,1.162a.532.532,0,0,1-.691-.158.555.555,0,0,1,.062-.718L13.5,46.056l-1.3.767a.531.531,0,0,1-.65-.086.555.555,0,0,1-.086-.661l.9-1.594-.9.53a.53.53,0,0,1-.523.009.549.549,0,0,1-.283-.447l-.048-.782a.542.542,0,0,1-.473-.43.552.552,0,0,1,.258-.59l.43-.254a.53.53,0,0,1,.523-.009.549.549,0,0,1,.283.447l.042.666,1.883-1.112a.531.531,0,0,1,.648.087.555.555,0,0,1,.087.66l-.9,1.587,3.982-2.339a.532.532,0,0,1,.689.16.555.555,0,0,1-.061.717l-1.367,1.263,3.638-2.135a.532.532,0,0,1,.709.167.555.555,0,0,1-.1.733l-1.839,1.5,4.1-2.41a.532.532,0,0,1,.709.164.555.555,0,0,1-.1.733l-2.9,2.428L26.51,42.5a.532.532,0,0,1,.705.153.555.555,0,0,1-.078.73L23.31,46.864,30.744,42.5a.532.532,0,0,1,.715.17.554.554,0,0,1-.118.738L28.5,45.629l5.336-3.137a.532.532,0,0,1,.716.165.554.554,0,0,1-.113.739l-3.551,2.863,6.416-3.771a.532.532,0,0,1,.712.162.555.555,0,0,1-.1.735L33.8,46.848l7.425-4.364a.532.532,0,0,1,.708.161.555.555,0,0,1-.094.733l-4.285,3.648,7.737-4.547a.533.533,0,0,1,.715.183.554.554,0,0,1-.135.738l-1.02.733,2.821-1.655a.532.532,0,0,1,.707.161.555.555,0,0,1-.092.732l-4.063,3.484,7.455-4.382a.532.532,0,0,1,.715.17.554.554,0,0,1-.118.738l-2.664,2.082,1.829-1.074a.532.532,0,0,1,.692.141.555.555,0,0,1-.04.717L50.23,47.174l.087-.051a.533.533,0,0,1,.715.211.554.554,0,0,1-.177.736l-3.53,2.075A.532.532,0,0,1,46.634,50a.555.555,0,0,1,.04-.717L48.54,47.36l-5.488,3.225a.532.532,0,0,1-.715-.17.554.554,0,0,1,.118-.738l2.66-2.082L39.5,50.9a.532.532,0,0,1-.707-.161A.555.555,0,0,1,38.881,50l4.066-3.486-7.7,4.526a.532.532,0,0,1-.722-.179.554.554,0,0,1,.142-.742l1.014-.73-2.959,1.742a.521.521,0,0,1-.269.073Z" transform="translate(0.244 -7.238)"/><path class="b" d="M31.565,46.834a.542.542,0,0,1-.519-.392.551.551,0,0,1,.224-.615l5.6-3.7-7.794,4.555a.538.538,0,0,1-.719-.194.552.552,0,0,1,.152-.738l6.279-4.171-8.552,5a.538.538,0,0,1-.723-.195.552.552,0,0,1,.16-.74l3.778-2.465-5.5,3.213a.538.538,0,0,1-.726-.183.552.552,0,0,1,.149-.742l9.282-6.445L20.569,46.089a.538.538,0,0,1-.744-.184.552.552,0,0,1,.182-.753l1.1-.707L18.733,45.83a.538.538,0,0,1-.724-.186.552.552,0,0,1,.149-.741l7.851-5.393L15.9,45.417a.538.538,0,0,1-.72-.2.552.552,0,0,1,.156-.738l2.661-1.744-3.92,2.289a.538.538,0,0,1-.724-.184A.552.552,0,0,1,13.5,44.1l7.7-5.39L11.39,44.444a.538.538,0,0,1-.73-.191.552.552,0,0,1,.166-.744l.991-.649L9.868,44a.538.538,0,0,1-.717-.192.552.552,0,0,1,.145-.736l4.431-3.013L8,43.4a.538.538,0,0,1-.715-.185.552.552,0,0,1,.133-.735L13.7,38,5.884,42.563a.537.537,0,0,1-.716-.176.552.552,0,0,1,.121-.736l6.82-5.213-8.4,4.907A.538.538,0,0,1,3,41.165a.552.552,0,0,1,.127-.735L7.51,37.2,2.36,40.207a.537.537,0,0,1-.713-.173.552.552,0,0,1,.111-.733L5.97,35.989l-4.5,2.629a.537.537,0,0,1-.7-.142.553.553,0,0,1,.055-.725l2.616-2.584-.848.5a.538.538,0,0,1-.72-.211.552.552,0,0,1,.178-.736l4.6-2.686a.537.537,0,0,1,.7.142A.553.553,0,0,1,7.3,32.9L4.679,35.479l7.591-4.434a.537.537,0,0,1,.713.173.552.552,0,0,1-.111.733L8.66,35.264l7.223-4.22a.537.537,0,0,1,.721.178.552.552,0,0,1-.133.739l-4.386,3.227,7.1-4.146a.537.537,0,0,1,.716.176.552.552,0,0,1-.121.736l-6.82,5.213,10.48-6.125a.538.538,0,0,1,.721.182.552.552,0,0,1-.139.739L17.74,36.455,27,31.045a.538.538,0,0,1,.731.184.552.552,0,0,1-.158.745L23.14,34.987l6.747-3.944a.538.538,0,0,1,.744.181.552.552,0,0,1-.179.753l-.985.644,2.706-1.58a.538.538,0,0,1,.724.184.552.552,0,0,1-.145.741l-7.7,5.392,10.809-6.316a.538.538,0,0,1,.73.191.552.552,0,0,1-.166.744L33.752,33.73l4.592-2.683a.538.538,0,0,1,.734.18.552.552,0,0,1-.16.748l-7.851,5.384,10.819-6.321a.538.538,0,0,1,.744.184.552.552,0,0,1-.182.753l-1.1.708,2.815-1.643a.538.538,0,0,1,.726.183.552.552,0,0,1-.149.742l-9.278,6.442,12.616-7.372a.538.538,0,0,1,.723.195.552.552,0,0,1-.16.74L44.86,34.437l5.823-3.4a.537.537,0,0,1,.745.179.552.552,0,0,1-.176.754l-6.279,4.171,8.734-5.1a.538.538,0,0,1,.745.18.552.552,0,0,1-.178.754l-5.614,3.7,7.226-4.223a.538.538,0,0,1,.726.181.552.552,0,0,1-.146.742l-9.813,6.916,11.794-6.89a.538.538,0,0,1,.72.2.552.552,0,0,1-.156.738l-2.586,1.7,3.413-1.994a.538.538,0,0,1,.724.186.552.552,0,0,1-.149.741l-5.691,3.91L61.36,33.99a.537.537,0,0,1,.724.177.552.552,0,0,1-.136.741l-6.223,4.551,7.061-4.126a.537.537,0,0,1,.717.173.552.552,0,0,1-.118.736l-4.367,3.374,4.473-2.61a.537.537,0,0,1,.707.156.552.552,0,0,1-.078.728l-1.674,1.5a.539.539,0,0,1,.673.287.551.551,0,0,1-.223.7l-4.54,2.653a.537.537,0,0,1-.711-.154.552.552,0,0,1,.082-.731l1.639-1.466-7.092,4.143a.537.537,0,0,1-.721-.17.552.552,0,0,1,.121-.739l4.366-3.38L47.1,45.763a.537.537,0,0,1-.724-.177.552.552,0,0,1,.136-.741l6.226-4.553L42.424,46.317a.538.538,0,0,1-.734-.18.552.552,0,0,1,.16-.748l5.685-3.907L38.75,46.615a.538.538,0,0,1-.744-.181.552.552,0,0,1,.179-.753l2.6-1.706L36.135,46.69a.538.538,0,0,1-.723-.182.552.552,0,0,1,.142-.741l9.813-6.916L31.835,46.759a.53.53,0,0,1-.27.076Z" transform="translate(-0.66 -8.332)"/><path class="c" d="M47.6,22.654a.548.548,0,0,1-.329-.986l4.031-3.1L46.9,21.113a.548.548,0,0,1-.6-.916l6.4-4.7a.548.548,0,0,1,.039-.644l.687-.832a.539.539,0,0,1-.358-.261.548.548,0,0,1,.2-.748l1.986-1.147a.548.548,0,0,1,.7.823l-.426.517,1.434-.828a.548.548,0,0,1,.6.916l-2.542,1.862,2.94-1.7a.548.548,0,0,1,.608.908l-4.029,3.1,4.078-2.354a.548.548,0,0,1,.686.835l-1.392,1.593,1.643-.945a.548.548,0,0,1,.686.835l-.791.9.134-.078a.548.548,0,1,1,.548.949L57.12,20.944a.548.548,0,0,1-.686-.836l.792-.9-1.623.936a.548.548,0,0,1-.687-.835l1.391-1.593-8.431,4.866A.538.538,0,0,1,47.6,22.654Z" transform="translate(2.915 -10.557)"/><path class="d" d="M14.207,40.032a.54.54,0,0,1-.518-.4.552.552,0,0,1,.23-.616l9.543-6.111L11.727,39.791a.535.535,0,0,1-.723-.2.553.553,0,0,1,.168-.741l6.794-4.292-7.642,4.481a.535.535,0,0,1-.717-.2.553.553,0,0,1,.155-.738l17.182-11.3L9.409,37.087a.534.534,0,0,1-.723-.192.553.553,0,0,1,.16-.741l16.146-10.6L9.45,34.667a.535.535,0,0,1-.724-.194.553.553,0,0,1,.164-.742l11.16-7.205L9.739,32.573a.535.535,0,0,1-.717-.194.553.553,0,0,1,.152-.738l14.369-9.595L10.311,29.808a.535.535,0,0,1-.741-.185.553.553,0,0,1,.182-.753l5.021-3.224-3.8,2.227a.535.535,0,0,1-.717-.2.553.553,0,0,1,.155-.738l6.072-3.966-4.563,2.675a.534.534,0,0,1-.727-.182.553.553,0,0,1,.153-.745l8.191-5.668-5.752,3.372a.534.534,0,0,1-.708-.17.554.554,0,0,1,.1-.732l5.594-4.534a.537.537,0,0,1-.655-.3.552.552,0,0,1,.224-.695l6.039-3.544a.534.534,0,0,1,.712.167.554.554,0,0,1-.105.734l-5.521,4.474,12.079-7.085a.534.534,0,0,1,.721.186.553.553,0,0,1-.148.741l-8.2,5.672,11.255-6.6a.534.534,0,0,1,.727.191.553.553,0,0,1-.165.744l-6.057,3.962,7.782-4.564a.535.535,0,0,1,.741.185.553.553,0,0,1-.182.753l-5.03,3.23,6.147-3.6a.535.535,0,0,1,.717.194.553.553,0,0,1-.152.738l-14.373,9.6,16.1-9.444a.535.535,0,0,1,.729.192.553.553,0,0,1-.17.745l-11.16,7.207,12.2-7.159a.534.534,0,0,1,.741.181.553.553,0,0,1-.178.753l-16.142,10.6,17.218-10.1a.534.534,0,0,1,.727.191.553.553,0,0,1-.165.744l-17.183,11.3L46.119,16.785a.535.535,0,0,1,.717.2.553.553,0,0,1-.163.737L39.885,22.01l7.073-4.149a.534.534,0,0,1,.74.186.553.553,0,0,1-.183.752l-9.548,6.113,9.474-5.554a.534.534,0,0,1,.722.19.553.553,0,0,1-.156.741L34.029,29.633,48.005,21.44a.534.534,0,0,1,.729.186.553.553,0,0,1-.162.746L36.884,30.259,48.54,23.412a.535.535,0,0,1,.713.2.553.553,0,0,1-.156.735l-2.492,1.608,2.265-1.328a.534.534,0,0,1,.744.169.553.553,0,0,1-.166.756L39.756,32.38l9.675-5.674a.534.534,0,0,1,.721.177.553.553,0,0,1-.135.741l-8.231,6.045,7.926-4.647a.534.534,0,0,1,.718.185.553.553,0,0,1-.141.739l-3.578,2.52,3.1-1.818a.534.534,0,0,1,.718.173.554.554,0,0,1-.123.739L46.569,34.49l4.119-2.41a.534.534,0,0,1,.706.163.554.554,0,0,1-.09.73l-3.4,2.9,5.251-3.08a.534.534,0,0,1,.717.168.554.554,0,0,1-.115.738l-1.768,1.4,2.637-1.546a.534.534,0,0,1,.708.157.554.554,0,0,1-.086.731l-1.871,1.631,2.215-1.3a.534.534,0,0,1,.688.148.554.554,0,0,1-.041.713l-1.265,1.292,1.1-.643a.534.534,0,0,1,.685.127.554.554,0,0,1-.01.707l-.4.466a.542.542,0,0,1,.474.43.551.551,0,0,1-.258.59l-2.3,1.349a.534.534,0,0,1-.685-.127.554.554,0,0,1,.01-.707l.2-.23-1.817,1.065a.534.534,0,0,1-.688-.148.554.554,0,0,1,.041-.713L52.589,37.8l-3.678,2.152a.534.534,0,0,1-.705-.16.554.554,0,0,1,.084-.729l1.87-1.631-4.3,2.52a.534.534,0,0,1-.709-.173.554.554,0,0,1,.108-.732l1.765-1.4-3.936,2.3a.534.534,0,0,1-.706-.163.554.554,0,0,1,.09-.73l3.4-2.894-6.46,3.787a.534.534,0,0,1-.718-.173.554.554,0,0,1,.123-.739l3.836-2.923L36.1,39.955a.534.534,0,0,1-.716-.185.553.553,0,0,1,.138-.737L39.106,36.5,33.22,39.955a.534.534,0,0,1-.721-.177.553.553,0,0,1,.135-.741l8.228-6.043L28.992,39.955a.534.534,0,0,1-.718-.185.553.553,0,0,1,.141-.739L38.107,32.2l-13.214,7.75a.535.535,0,0,1-.718-.2.553.553,0,0,1,.159-.738l2.491-1.6L22.49,39.958a.534.534,0,0,1-.719-.191.553.553,0,0,1,.152-.739L33.616,31.14,18.579,39.955a.535.535,0,0,1-.717-.194.553.553,0,0,1,.152-.738l13.979-9.345L14.472,39.955a.533.533,0,0,1-.264.078Z" transform="translate(0.1 -10.665)"/><g transform="translate(13.777 6.888)"><path class="e" d="M37.8,34.57a.548.548,0,0,1-.32-.993l2.5-1.79L36,34.079a.548.548,0,0,1-.591-.921L39.731,30.1l-5.22,3.016a.548.548,0,0,1-.594-.919l6.625-4.769L33.219,31.66a.548.548,0,0,1-.586-.925L37.9,27.078l-5.554,3.206a.548.548,0,0,1-.58-.928l2.644-1.777-2.58,1.488a.548.548,0,1,1-.579-.93l1.385-.925-1.236.713A.548.548,0,0,1,30.815,27L33.4,25.221l-2.243,1.295a.548.548,0,0,1-.591-.921l2.6-1.839-1.885,1.089a.548.548,0,0,1-.627-.893l2.891-2.439-.067.038a.548.548,0,1,1-.548-.949l5.409-3.121a.548.548,0,0,1,.627.892L36.08,20.809l6.769-3.9a.548.548,0,0,1,.591.92l-2.6,1.844,4.125-2.381a.548.548,0,0,1,.584.926l-2.584,1.769,3.566-2.059a.548.548,0,1,1,.58.93l-1.386.925L47.759,18.6a.548.548,0,0,1,.581.929l-2.649,1.78,3.03-1.753a.548.548,0,0,1,.586.925L44.049,24.14l5.391-3.114a.548.548,0,0,1,.594.919l-6.623,4.768,6.11-3.527a.548.548,0,0,1,.591.921L45.793,27.16l3.26-1.882a.548.548,0,0,1,.593.919l-2.5,1.8.935-.539a.548.548,0,0,1,.609.907l-2.032,1.57a.548.548,0,0,1-.015.939l-4.806,2.775a.548.548,0,0,1-.608-.907l.319-.247-3.467,2a.548.548,0,0,1-.278.073Z" transform="translate(-12.017 -16.837)"/><path class="e" d="M20.829,38.972a.548.548,0,0,1-.358-.962l1.488-1.285-3.741,2.159a.548.548,0,0,1-.652-.876l2.346-2.237-3.957,2.288a.548.548,0,0,1-.634-.886l1.773-1.551-2.179,1.261a.548.548,0,0,1-.606-.911l.2-.149a.548.548,0,0,1-.594-.917l1.366-1.043-.847.488a.548.548,0,0,1-.612-.9l2.352-1.855-1.062.614a.548.548,0,0,1-.643-.876l3.528-3.214-.666.383a.548.548,0,0,1-.641-.876L18.2,26.25a.524.524,0,0,1-.185-.13.548.548,0,0,1-.049-.683l1.844-2.688a.548.548,0,0,1,.242-.657l.45-.26a.548.548,0,0,1,.726.784l-.994,1.448,1.142-.657a.548.548,0,0,1,.641.876l-.727.657.548-.313a.548.548,0,0,1,.643.876l-3.528,3.213,3.256-1.873a.548.548,0,0,1,.614.9L20.464,29.61l1.621-.935a.548.548,0,0,1,.606.909l-1.363,1.041.164-.094a.548.548,0,0,1,.6.91l-.494.375a.548.548,0,0,1,.423.956L20.26,34.308l3.068-1.77a.548.548,0,1,1,.657.876l-2.348,2.238,4.778-2.758a.548.548,0,0,1,.632.888L25.555,35.06l1.972-1.138a.548.548,0,0,1,.68.842l-1.3,1.424,1.01-.583a.548.548,0,1,1,.548.949l-4.054,2.338a.548.548,0,0,1-.679-.841l1.3-1.424L21.1,38.895a.537.537,0,0,1-.268.078Z" transform="translate(-13.615 -16.367)"/></g></g><g transform="translate(0.387 10.638)"><path class="f" d="M2.6,43.379a23.822,23.822,0,0,0,8.182,3.791l1.34,3.264c.63,1.536,1.178,2.922,3.045,3.1a133.193,133.193,0,0,0,34.194,0c1.949-.176,2.653-1.493,3.325-3.131q.75-1.824,1.5-3.648A33.29,33.29,0,0,0,60.4,44.282c8.411-4.445,1.216-9.1-4.72-11a5.184,5.184,0,0,0-2.367-.608c-2.134-.149-1.678-2.9-1.678-4.392a.336.336,0,0,0-.056-.179,11.929,11.929,0,0,0,1.366-4.532l5.621-3.15a3.878,3.878,0,0,0,4.741-.2,3.161,3.161,0,0,0-.277-4.975c-.369-4.754-7.782-3.615-6.97.808l-5.4,3.026a6.935,6.935,0,0,0-1.786-.927c-7.3-10.305-21.3-9.141-30.34-1.78-2.749,2.237-8.9,10.975-9.877,17.259C4.22,35.2-3.4,38.819,2.6,43.379ZM51.665,49.12c-.39.95-.909,3.206-2.14,3.316a131.575,131.575,0,0,1-33.794,0c-1.5-.136-1.926-2.153-2.414-3.342l-.594-1.447c6.5,1.422,13.789,1.406,19.413,1.409,6.408,0,13.679-.2,20.312-1.842ZM47.581,18.952a.562.562,0,0,0,.274.092A5.2,5.2,0,0,1,51.4,23.855a12.323,12.323,0,0,1-1.259,4.408c-.006.009-.009.019-.014.028a10.874,10.874,0,0,1-7.1,5.83c-4.769,1.14-8.034-2.176-8.851-6.763-.566-3.183,1.472-5.61,4.049-7.107a12.705,12.705,0,0,1,9.355-1.3Zm9.571-2.787a.93.93,0,0,0,.457-.292v-.012a.157.157,0,0,0,.03-.111c-.254-1.168.129-3.257,1.78-2.914a3.007,3.007,0,0,1,2.044,2.857c0,.021.026.033.043.049v.01a3.082,3.082,0,0,1,1.229,3.316c-.166.578-.632,1.367-1.293,1.425a2.458,2.458,0,0,1-1.732-.884l-.03-.033c-.248-.283-1.1.116-1.339.249l-5.46,3.059a5.656,5.656,0,0,0-1.707-3.374ZM11.941,27.841C16.8,13.927,36.16,5.01,46.54,17.638c-6.488-.636-15.334,4-13.817,10.606,1.165,5.085,4.989,7.872,9.84,6.495a15.55,15.55,0,0,0,7.5-4.471c0,.24-.005.481,0,.72a2.694,2.694,0,0,0,.79,1.88,2.583,2.583,0,0,0,1.862.755,4.086,4.086,0,0,1,3.838,4.09,1.975,1.975,0,0,1-.392,1.139c-3.789,1.487-9.419.442-13.419.442H28.57a3.675,3.675,0,0,0,1.4-2.247c0-.014-.009-.021-.009-.034s.017-.033.016-.052c-.418-4.594-5.042-1.495-6.215-3.779-.556-1.082.441-2.555.541-3.811a9.091,9.091,0,0,0-.337-3.144A10.119,10.119,0,0,0,22.358,22.9c-.272-.363-1.34.119-1.516.413l-4.431,7.543c-1.484,2.525-3.425,5.87-.587,8.27a3.767,3.767,0,0,0,.5.322,12.174,12.174,0,0,1-2.027-.157c-5.272-.924-3.613-7.87-2.358-11.453Zm9.586-3.34a10.247,10.247,0,0,1,.974,2.554,9.7,9.7,0,0,1-.18,4.643c-.178.74-.861,1.45-.373,2.2,1.587,2.441,5.979-1.355,6.449,3.455a2.673,2.673,0,0,1-1.94,1.949H20.889c-.371,0-.758.013-1.146.03-3.2-.48-4.689-3.206-3.057-6.543,1.393-2.844,3.175-5.558,4.841-8.282ZM8.555,34.484c-.235,2.985.887,5.274,4.421,5.773,7.845,1.105,16.623,0,24.534,0H51.026a13.907,13.907,0,0,0,5.772-.689,1.236,1.236,0,0,0,.414-.193.565.565,0,0,0,.239-.233,2.671,2.671,0,0,0,.681-1.665c0-.025-.014-.041-.017-.063s.016-.038.015-.059a4.939,4.939,0,0,0-.7-2.372,10.2,10.2,0,0,1,4.6,2.791c3.609,4.486-4.666,7.067-7.629,7.912-.152.043-.306.076-.459.117a1.255,1.255,0,0,0-.951.244,82.5,82.5,0,0,1-20.234,2.145,84.773,84.773,0,0,1-19.538-1.948c-.388-.092-.808-.189-1.247-.291a.8.8,0,0,0-.67-.161c-2.859-.684-6.333-1.68-8.112-3.719-3.338-3.825,1.8-6.318,5.365-7.589Z" transform="translate(-0.387 -10.638)"/><path class="f" d="M22.421,18.317a20,20,0,0,1,6.317-2.6c.939-.211.8-.755-.145-.548a23.523,23.523,0,0,0-7.4,3.068C20.524,18.656,22.108,18.513,22.421,18.317Z" transform="translate(1.278 -10.21)"/><path class="f" d="M31.74,15.433c.309,0,.617.007.925.03a1.585,1.585,0,0,0,1.122-.3c.219-.191.219-.458-.129-.483-.425-.031-.848-.048-1.274-.049a1.362,1.362,0,0,0-1.054.413c-.182.306.163.39.411.391Z" transform="translate(2.147 -10.257)"/><path class="f" d="M23.783,41.413a120.874,120.874,0,0,0,13.35,0c.865-.047,1.251-1.139.162-1.079a116.994,116.994,0,0,1-12.943,0c-.723-.037-1.642,1.019-.57,1.079Z" transform="translate(1.418 -7.497)"/></g></g></svg>